<svg width="340" height="332" viewBox="0 0 340 332" fill="none" xmlns="http://www.w3.org/2000/svg">
<path d="M105.02 0V121.403C159.98 121.403 204.531 165.955 204.531 220.915H325.935V0H105.02Z" fill="#341C78"/>
<ellipse cx="99.0827" cy="221.964" rx="81.5437" ry="81.2188" fill="#341C78"/>
<mask id="mask0_9214_103165" style="mask-type:alpha" maskUnits="userSpaceOnUse" x="105" y="0" width="221" height="221">
<path d="M105.02 0V121.403C159.98 121.403 204.531 165.955 204.531 220.915H325.935V0H105.02Z" fill="#4B2BA5"/>
</mask>
<g mask="url(#mask0_9214_103165)">
<path d="M151.224 67.6913H151.223C109.342 67.7088 75.2745 101.856 75.2745 143.821V224.101H71.2826V-92.7027H75.2745V-12.614C75.2745 29.4639 109.429 63.698 151.414 63.7067H151.414C193.296 63.6893 227.363 29.542 227.363 -12.4232V-92.7027H307.322H387.436V224.101H227.363V144.012C227.363 101.934 193.209 67.7001 151.224 67.6913ZM307.305 -88.7093L307.304 -88.7093C265.423 -88.6918 231.355 -54.5446 231.355 -12.5794V143.787C231.355 185.865 265.509 220.099 307.495 220.107C349.377 220.09 383.444 185.943 383.444 143.977V65.699V-12.3886C383.444 -54.4665 349.29 -88.7005 307.305 -88.7093Z" stroke="url(#paint0_linear_9214_103165)" stroke-opacity="0.65" stroke-width="0.924522"/>
</g>
<line x1="322.926" y1="331.122" x2="-6.10352e-05" y2="331.122" stroke="#6139D2" stroke-width="1.2995"/>
<path d="M270.659 32.4919H84.3895C82.0602 32.4919 80.1719 34.3802 80.1719 36.7096V176.352C80.1719 178.682 82.0602 180.57 84.3895 180.57H270.659C272.989 180.57 274.877 178.682 274.877 176.352V36.7096C274.877 34.3802 272.989 32.4919 270.659 32.4919Z" fill="#E4DAFF"/>
<path d="M52.9696 103.764C55.3542 101.286 55.2531 100.856 55.2198 100.714C55.1905 100.591 55.1006 100.5 54.9773 100.472C54.9571 100.467 54.9308 100.461 54.8934 100.461C54.6701 100.461 54.0487 100.68 51.9279 102.722C51.8875 102.76 51.8471 102.801 51.8046 102.841C48.2813 106.26 42.6887 106.26 39.1645 102.841C39.123 102.801 39.0816 102.761 39.0412 102.722C36.9193 100.68 36.2989 100.461 36.0756 100.461C36.0382 100.461 36.012 100.467 35.9918 100.472C35.8685 100.501 35.7776 100.591 35.7493 100.714C35.7159 100.856 35.6149 101.287 37.9994 103.764C38.0378 103.804 38.0783 103.844 38.1187 103.887C41.5379 107.41 41.5379 113.003 38.1187 116.527C38.0783 116.568 38.0389 116.61 37.9994 116.65C35.6149 119.128 35.7159 119.558 35.7493 119.7C35.7786 119.823 35.8685 119.914 35.9918 119.942C36.1332 119.976 36.5647 120.077 39.0412 117.692C39.0816 117.654 39.122 117.613 39.1645 117.573C42.6877 114.154 48.2803 114.154 51.8046 117.573C51.8461 117.613 51.8875 117.653 51.9279 117.692C54.4054 120.077 54.8358 119.976 54.9773 119.942C55.1006 119.913 55.1915 119.823 55.2198 119.7C55.2531 119.558 55.3542 119.127 52.9696 116.65C52.9312 116.61 52.8908 116.569 52.8504 116.527C49.4312 113.004 49.4312 107.411 52.8504 103.887C52.8908 103.845 52.9312 103.804 52.9696 103.764Z" fill="#F2C94C"/>
<path d="M270.665 180.826H84.3959C81.9292 180.826 79.9219 178.818 79.9219 176.352V36.7109C79.9219 34.2442 81.9292 32.2369 84.3959 32.2369H270.666C273.133 32.2369 275.14 34.2442 275.14 36.7109V176.353C275.14 178.819 273.133 180.827 270.666 180.827L270.665 180.826ZM84.3959 32.7474C82.2111 32.7474 80.4336 34.5249 80.4336 36.7097V176.352C80.4336 178.536 82.2111 180.314 84.3959 180.314H270.666C272.851 180.314 274.628 178.536 274.628 176.352V36.7109C274.628 34.5261 272.851 32.7486 270.666 32.7486H84.3959V32.7474Z" fill="#4B2BA5"/>
<path d="M89.7176 42.2513C90.6134 41.3555 90.6134 39.9031 89.7176 39.0073C88.8218 38.1115 87.3694 38.1115 86.4736 39.0073C85.5778 39.9031 85.5778 41.3555 86.4736 42.2513C87.3694 43.1472 88.8218 43.1472 89.7176 42.2513Z" fill="#C9B5FF"/>
<path d="M97.0232 41.1549C97.3142 39.9219 96.5506 38.6865 95.3176 38.3955C94.0846 38.1045 92.8492 38.8681 92.5582 40.1011C92.2672 41.3341 93.0308 42.5695 94.2638 42.8605C95.4968 43.1516 96.7322 42.3879 97.0232 41.1549Z" fill="#C9B5FF"/>
<path d="M103.715 41.1553C104.006 39.9223 103.242 38.6868 102.009 38.3958C100.776 38.1048 99.5406 38.8684 99.2496 40.1014C98.9586 41.3344 99.7222 42.5699 100.955 42.8609C102.188 43.1519 103.424 42.3883 103.715 41.1553Z" fill="#C9B5FF"/>
<path d="M214.838 43.349H111.268C109.985 43.349 108.945 42.3094 108.945 41.0262C108.945 39.7429 109.985 38.7033 111.268 38.7033H214.838C216.121 38.7033 217.161 39.7429 217.161 41.0262C217.161 42.3094 216.121 43.349 214.838 43.349Z" fill="#C9B5FF"/>
<path d="M270.038 176.112H85.017C84.8754 176.112 84.7617 175.999 84.7617 175.857V48.5988C84.7617 48.4573 84.8766 48.3436 85.017 48.3436H270.038C270.18 48.3436 270.294 48.4584 270.294 48.5988V175.858C270.294 176 270.179 176.113 270.038 176.113V176.112ZM85.2722 175.602H269.783V48.8541H85.2734V175.602H85.2722Z" fill="#4B2BA5"/>
<path d="M141.578 56.5696H283.591C285.19 56.5696 286.486 57.866 286.486 59.4651V157.649C286.486 159.248 285.19 160.544 283.591 160.544H141.578C139.979 160.544 138.683 159.248 138.683 157.649V59.4651C138.683 57.866 139.979 56.5696 141.578 56.5696Z" fill="white" stroke="#6139D2" stroke-width="0.686175"/>
<path d="M205.552 65.685H147.977V83.4215H205.552V65.685Z" fill="white"/>
<path d="M281.335 62.1254H191.02V106.308H281.335V62.1254Z" fill="#9BF1B9"/>
<path d="M123.352 68.8082H168.781V167.05C168.781 167.363 168.527 167.617 168.213 167.617H123.352V68.8082Z" fill="#F1EDFF"/>
<rect x="127.027" y="78.7069" width="10.8667" height="10.8667" rx="0.865175" fill="white"/>
<g clip-path="url(#clip0_9214_103165)">
<rect x="132.605" y="81.717" width="2.22969" height="0.439521" rx="0.21976" fill="#4B2BA5"/>
<path d="M131.519 83.5642V83.4909C131.519 83.4423 131.482 83.4018 131.434 83.3979C131.397 83.3948 131.36 83.3914 131.323 83.3875C131.252 83.38 131.173 83.3721 131.173 83.2831L131.173 81.9053C131.454 81.9011 131.608 82.0645 131.689 82.3064C131.702 82.3453 131.739 82.3714 131.779 82.3714H131.854C131.906 82.3714 131.947 82.3297 131.947 82.278V81.7296C131.947 81.6779 131.906 81.6361 131.854 81.6361H130.937H130.936H130.019C129.967 81.6361 129.926 81.6779 129.926 81.7296V82.278C129.926 82.3297 129.967 82.3714 130.019 82.3714H130.094C130.134 82.3714 130.171 82.3453 130.184 82.3064C130.265 82.0645 130.419 81.9011 130.701 81.9053L130.7 83.2831C130.7 83.3721 130.621 83.38 130.55 83.3875C130.513 83.3915 130.476 83.3948 130.439 83.3979C130.391 83.4018 130.354 83.4423 130.354 83.4909V83.5642C130.354 83.6159 130.395 83.6577 130.447 83.6577H130.936H130.937H131.426C131.478 83.6577 131.519 83.6157 131.519 83.5642Z" fill="#4B2BA5"/>
<rect x="132.605" y="82.5959" width="2.22969" height="0.439521" rx="0.21976" fill="#4B2BA5"/>
<rect x="132.605" y="83.475" width="2.22969" height="0.439521" rx="0.21976" fill="#4B2BA5"/>
<rect x="129.926" y="84.3539" width="4.90531" height="0.439521" rx="0.21976" fill="#4B2BA5"/>
<rect x="129.926" y="85.233" width="4.90531" height="0.439521" rx="0.21976" fill="#4B2BA5"/>
</g>
<rect x="127.027" y="71.8438" width="10.8667" height="3.4316" rx="0.865175" fill="white"/>
<rect x="129.422" y="73.0446" width="6.06457" height="1.01076" rx="0.505381" fill="#F7F6F5"/>
<rect x="140.754" y="71.8438" width="10.8667" height="3.4316" rx="0.865175" fill="white"/>
<rect x="143.07" y="73.0446" width="6.06457" height="1.01076" rx="0.505381" fill="#F7F6F5"/>
<rect x="154.695" y="71.8438" width="10.8667" height="3.4316" rx="0.865175" fill="white"/>
<rect x="157.219" y="73.0446" width="6.06457" height="1.01076" rx="0.505381" fill="#F7F6F5"/>
<rect x="140.754" y="78.7069" width="10.8667" height="10.8667" rx="0.865175" fill="white"/>
<rect x="154.695" y="78.7069" width="10.8667" height="10.8667" rx="0.865175" fill="white"/>
<rect x="127.027" y="92.4334" width="10.8667" height="10.8667" rx="0.865175" fill="white"/>
<path d="M134.017 98.2199L133.46 96.9211C133.358 96.6829 133.208 96.5493 133.036 96.5394C132.865 96.5305 132.7 96.6495 132.575 96.8765L132.238 97.4825C132.167 97.6103 132.066 97.6861 131.956 97.6959C131.844 97.7072 131.732 97.6479 131.642 97.5329L131.603 97.4836C131.477 97.326 131.321 97.2492 131.161 97.2649C131.002 97.2806 130.864 97.391 130.775 97.5704L130.467 98.1827C130.358 98.4042 130.369 98.6619 130.498 98.8719C130.627 99.0818 130.852 99.207 131.1 99.2067L133.366 99.2052C133.603 99.2046 133.825 99.086 133.956 98.8876C134.09 98.6886 134.112 98.4386 134.018 98.2209L134.017 98.2199Z" fill="#4B2BA5"/>
<path d="M131.35 96.7239C131.681 96.7236 131.951 96.4549 131.95 96.1232C131.949 95.7916 131.681 95.5228 131.349 95.5239C131.017 95.525 130.749 95.7929 130.75 96.1246C130.751 96.4563 131.019 96.725 131.35 96.7239Z" fill="#4B2BA5"/>
<rect x="140.754" y="92.4334" width="10.8667" height="10.8667" rx="0.865175" fill="white"/>
<rect x="154.695" y="92.4334" width="10.8667" height="10.8667" rx="0.865175" fill="white"/>
<rect x="127.027" y="106.16" width="10.8667" height="10.8667" rx="0.865175" fill="white"/>
<rect x="130.531" y="110.039" width="3.84089" height="3.33551" rx="0.404305" stroke="#4B2BA5" stroke-width="0.202152"/>
<rect x="127.027" y="119.886" width="10.8667" height="10.8667" rx="0.865175" fill="white"/>
<rect x="140.754" y="119.886" width="10.8667" height="10.8667" rx="0.865175" fill="white"/>
<rect x="127.027" y="133.691" width="10.8667" height="10.8667" rx="0.865175" fill="white"/>
<path d="M132.808 136.687L132.793 136.672H132.772H132.7C131.418 136.672 130.375 137.715 130.375 138.997C130.375 140.279 131.418 141.322 132.7 141.322C133.982 141.322 135.025 140.279 135.025 138.997V138.925V138.904L135.01 138.889L132.808 136.687ZM132.922 137.438L134.259 138.775C133.832 138.742 133.511 138.615 133.297 138.4C133.082 138.186 132.955 137.865 132.922 137.438ZM132.7 140.871C131.667 140.871 130.826 140.03 130.826 138.997C130.826 138.044 131.541 137.255 132.463 137.138C132.451 137.828 132.621 138.362 132.978 138.719C133.323 139.065 133.834 139.235 134.491 139.235C134.513 139.235 134.536 139.235 134.559 139.234C134.442 140.156 133.653 140.871 132.7 140.871Z" fill="#4B2BA5" stroke="#4B2BA5" stroke-width="0.101076"/>
<rect x="154.695" y="120.045" width="10.8667" height="10.8667" rx="0.865175" fill="white"/>
<rect x="140.754" y="133.691" width="10.8667" height="10.8667" rx="0.865175" fill="white"/>
<g clip-path="url(#clip1_9214_103165)">
<path d="M144.527 136.723V140.766H147.672V138.183L147.223 138.632V140.317H144.977V137.172H145.763L146.212 136.723H144.527ZM146.324 136.723V138.071H147.672V137.621H147.223V137.172H146.774V136.723" fill="#4B2BA5"/>
</g>
<rect x="158.734" y="124.089" width="3.03229" height="0.505381" rx="0.25269" fill="#4B2BA5"/>
<rect x="158.734" y="125.1" width="3.03229" height="0.505381" rx="0.25269" fill="#4B2BA5"/>
<rect x="158.734" y="126.11" width="3.03229" height="0.505381" rx="0.25269" fill="#4B2BA5"/>
<rect x="140.754" y="106.16" width="10.8667" height="10.8667" rx="0.865175" fill="white"/>
<path d="M134.473 123.424C134.473 123.233 134.327 123.077 134.147 123.077H130.755C130.575 123.077 130.43 123.233 130.43 123.424V126.774C130.43 126.965 130.575 127.12 130.755 127.12H134.147C134.327 127.12 134.473 126.965 134.473 126.774V123.424ZM131.664 123.511H132.248V124.001H131.664V123.511ZM131.257 126.687H130.837V126.196H131.257V126.687ZM131.257 124.001H130.837V123.511H131.257V124.001ZM132.248 126.687H131.664V126.196H132.248V126.687ZM132.098 125.499V124.699C132.098 124.58 132.178 124.536 132.272 124.601L132.818 124.98C132.911 125.045 132.912 125.152 132.818 125.217L132.271 125.597C132.178 125.662 132.098 125.618 132.098 125.499ZM133.238 126.687H132.655V126.196H133.238V126.687ZM133.238 124.001H132.655V123.511H133.238V124.001ZM134.066 126.687H133.645V126.196H134.066V126.687ZM134.066 124.001H133.645V123.511H134.066V124.001Z" fill="#4B2BA5"/>
<rect x="154.695" y="106.16" width="10.8667" height="10.8667" rx="0.865175" fill="white"/>
<g clip-path="url(#clip2_9214_103165)">
<path d="M159.113 112.514C159.161 112.566 159.231 112.595 159.303 112.595C159.366 112.595 159.426 112.573 159.473 112.533C159.578 112.442 159.586 112.287 159.492 112.187L158.805 111.454L159.492 110.721C159.586 110.621 159.578 110.466 159.473 110.375C159.423 110.332 159.357 110.309 159.289 110.313C159.221 110.316 159.159 110.345 159.113 110.394L158.273 111.29C158.185 111.384 158.185 111.524 158.273 111.618L159.113 112.514Z" fill="#4B2BA5"/>
<path d="M161.397 110.393C161.303 110.293 161.142 110.285 161.037 110.375C160.933 110.466 160.924 110.621 161.018 110.721L161.706 111.454L161.018 112.187C160.924 112.287 160.933 112.442 161.037 112.533C161.084 112.573 161.145 112.595 161.208 112.595C161.28 112.595 161.349 112.566 161.397 112.514L162.238 111.618C162.326 111.524 162.326 111.383 162.238 111.29L161.397 110.393Z" fill="#4B2BA5"/>
<path d="M160.705 109.708L160.705 109.708C160.568 109.676 160.43 109.757 160.396 109.887L159.625 112.905C159.591 113.036 159.675 113.169 159.811 113.201C159.831 113.206 159.852 113.208 159.872 113.208C159.99 113.208 160.092 113.131 160.12 113.022L160.892 110.004C160.925 109.873 160.841 109.74 160.705 109.708Z" fill="#4B2BA5"/>
</g>
<path fill-rule="evenodd" clip-rule="evenodd" d="M146.245 109.938C145.916 109.938 145.594 110.035 145.321 110.218C145.047 110.401 144.834 110.66 144.709 110.964C144.583 111.268 144.55 111.602 144.614 111.925C144.678 112.247 144.836 112.543 145.069 112.776C145.301 113.008 145.598 113.167 145.92 113.231C146.243 113.295 146.577 113.262 146.881 113.136C147.185 113.01 147.444 112.797 147.627 112.524C147.809 112.251 147.907 111.929 147.907 111.6C147.908 111.382 147.865 111.165 147.781 110.964C147.698 110.762 147.576 110.578 147.421 110.424C147.267 110.269 147.083 110.147 146.881 110.063C146.679 109.98 146.463 109.937 146.245 109.938V109.938ZM146.246 113.073C145.955 113.073 145.67 112.987 145.428 112.825C145.186 112.663 144.997 112.433 144.886 112.164C144.774 111.895 144.745 111.599 144.802 111.313C144.859 111.028 144.999 110.765 145.205 110.559C145.411 110.354 145.673 110.213 145.959 110.156C146.244 110.1 146.54 110.129 146.809 110.24C147.078 110.352 147.308 110.54 147.47 110.783C147.632 111.025 147.718 111.309 147.718 111.601C147.716 111.991 147.561 112.364 147.285 112.64C147.009 112.915 146.636 113.071 146.246 113.073L146.246 113.073ZM146.29 111.553H147.145V111.648H146.29V112.503H146.195V111.648H145.34V111.553H146.195V110.698H146.29V111.553Z" fill="#4B2BA5"/>
<path d="M146.245 109.938V110.039H146.346V109.938H146.245ZM145.321 110.218L145.265 110.134L145.265 110.134L145.321 110.218ZM144.709 110.964L144.802 111.003L144.802 111.003L144.709 110.964ZM144.614 111.925L144.515 111.944L144.515 111.944L144.614 111.925ZM145.069 112.776L144.997 112.847L144.997 112.847L145.069 112.776ZM145.92 113.231L145.94 113.132L145.94 113.132L145.92 113.231ZM146.881 113.136L146.919 113.23L146.919 113.23L146.881 113.136ZM147.627 112.524L147.711 112.58L147.711 112.58L147.627 112.524ZM147.907 111.6L147.806 111.6V111.6H147.907ZM147.781 110.964L147.875 110.925L147.875 110.925L147.781 110.964ZM147.421 110.424L147.35 110.495L147.35 110.495L147.421 110.424ZM146.881 110.063L146.92 109.97L146.92 109.97L146.881 110.063ZM146.245 109.938L146.244 109.837L146.143 109.837V109.938H146.245ZM146.246 113.073V113.174H146.288L146.317 113.145L146.246 113.073ZM145.428 112.825L145.372 112.909L145.372 112.909L145.428 112.825ZM144.886 112.164L144.792 112.203L144.792 112.203L144.886 112.164ZM144.802 111.313L144.901 111.333L144.901 111.333L144.802 111.313ZM145.205 110.559L145.276 110.631L145.276 110.631L145.205 110.559ZM146.809 110.24L146.848 110.147L146.848 110.147L146.809 110.24ZM147.47 110.783L147.554 110.726L147.554 110.726L147.47 110.783ZM147.718 111.601L147.819 111.601V111.601H147.718ZM147.285 112.64L147.213 112.568L147.213 112.568L147.285 112.64ZM146.246 113.073L146.245 112.972L146.204 112.972L146.174 113.002L146.246 113.073ZM146.29 111.553H146.189V111.654H146.29V111.553ZM147.145 111.553H147.246V111.452H147.145V111.553ZM147.145 111.648V111.749H147.246V111.648H147.145ZM146.29 111.648V111.547H146.189V111.648H146.29ZM146.29 112.503V112.604H146.391V112.503H146.29ZM146.195 112.503H146.094V112.604H146.195V112.503ZM146.195 111.648H146.296V111.547H146.195V111.648ZM145.34 111.648H145.239V111.749H145.34V111.648ZM145.34 111.553V111.452H145.239V111.553H145.34ZM146.195 111.553V111.654H146.296V111.553H146.195ZM146.195 110.698V110.597H146.094V110.698H146.195ZM146.29 110.698H146.391V110.597H146.29V110.698ZM146.245 109.837C145.896 109.837 145.555 109.94 145.265 110.134L145.377 110.302C145.634 110.131 145.936 110.039 146.245 110.039V109.837ZM145.265 110.134C144.975 110.328 144.749 110.603 144.615 110.925L144.802 111.003C144.92 110.718 145.12 110.474 145.377 110.302L145.265 110.134ZM144.615 110.925C144.482 111.248 144.447 111.602 144.515 111.944L144.713 111.905C144.653 111.602 144.684 111.288 144.802 111.003L144.615 110.925ZM144.515 111.944C144.583 112.286 144.751 112.601 144.997 112.847L145.14 112.704C144.922 112.486 144.773 112.208 144.713 111.905L144.515 111.944ZM144.997 112.847C145.244 113.094 145.558 113.262 145.9 113.33L145.94 113.132C145.637 113.072 145.359 112.923 145.14 112.704L144.997 112.847ZM145.9 113.33C146.243 113.398 146.597 113.363 146.919 113.23L146.842 113.043C146.557 113.161 146.243 113.192 145.94 113.132L145.9 113.33ZM146.919 113.23C147.242 113.096 147.517 112.87 147.711 112.58L147.543 112.468C147.371 112.725 147.127 112.925 146.842 113.043L146.919 113.23ZM147.711 112.58C147.905 112.29 148.008 111.949 148.008 111.6H147.806C147.806 111.909 147.714 112.211 147.543 112.468L147.711 112.58ZM148.008 111.601C148.009 111.369 147.963 111.139 147.875 110.925L147.688 111.002C147.766 111.192 147.806 111.395 147.806 111.6L148.008 111.601ZM147.875 110.925C147.786 110.711 147.657 110.516 147.493 110.352L147.35 110.495C147.495 110.64 147.61 110.812 147.688 111.002L147.875 110.925ZM147.493 110.352C147.329 110.188 147.134 110.058 146.92 109.97L146.843 110.157C147.032 110.235 147.205 110.35 147.35 110.495L147.493 110.352ZM146.92 109.97C146.706 109.882 146.476 109.836 146.244 109.837L146.245 110.039C146.45 110.038 146.653 110.079 146.843 110.157L146.92 109.97ZM146.143 109.938V109.938H146.346V109.938H146.143ZM146.246 112.972C145.975 112.972 145.71 112.892 145.484 112.741L145.372 112.909C145.63 113.082 145.935 113.174 146.246 113.174V112.972ZM145.484 112.741C145.258 112.59 145.083 112.376 144.979 112.126L144.792 112.203C144.911 112.49 145.113 112.736 145.372 112.909L145.484 112.741ZM144.979 112.126C144.875 111.875 144.848 111.599 144.901 111.333L144.703 111.294C144.642 111.599 144.673 111.915 144.792 112.203L144.979 112.126ZM144.901 111.333C144.954 111.067 145.084 110.823 145.276 110.631L145.133 110.488C144.913 110.708 144.763 110.988 144.703 111.294L144.901 111.333ZM145.276 110.631C145.468 110.439 145.712 110.309 145.978 110.256L145.939 110.057C145.634 110.118 145.353 110.268 145.133 110.488L145.276 110.631ZM145.978 110.256C146.244 110.203 146.52 110.23 146.771 110.334L146.848 110.147C146.561 110.028 146.244 109.997 145.939 110.057L145.978 110.256ZM146.771 110.334C147.021 110.437 147.236 110.613 147.386 110.839L147.554 110.726C147.381 110.468 147.136 110.266 146.848 110.147L146.771 110.334ZM147.386 110.839C147.537 111.064 147.617 111.329 147.617 111.601H147.819C147.819 111.289 147.727 110.985 147.554 110.726L147.386 110.839ZM147.617 111.6C147.615 111.963 147.47 112.311 147.213 112.568L147.356 112.711C147.651 112.417 147.817 112.018 147.819 111.601L147.617 111.6ZM147.213 112.568C146.957 112.825 146.609 112.97 146.245 112.972L146.246 113.174C146.663 113.172 147.062 113.006 147.356 112.711L147.213 112.568ZM146.174 113.002L146.174 113.002L146.317 113.145L146.317 113.145L146.174 113.002ZM146.29 111.654H147.145V111.452H146.29V111.654ZM147.044 111.553V111.648H147.246V111.553H147.044ZM147.145 111.547H146.29V111.749H147.145V111.547ZM146.189 111.648V112.503H146.391V111.648H146.189ZM146.29 112.402H146.195V112.604H146.29V112.402ZM146.296 112.503V111.648H146.094V112.503H146.296ZM146.195 111.547H145.34V111.749H146.195V111.547ZM145.441 111.648V111.553H145.239V111.648H145.441ZM145.34 111.654H146.195V111.452H145.34V111.654ZM146.296 111.553V110.698H146.094V111.553H146.296ZM146.195 110.799H146.29V110.597H146.195V110.799ZM146.189 110.698V111.553H146.391V110.698H146.189Z" fill="#4B2BA5"/>
<g clip-path="url(#clip3_9214_103165)">
<rect width="2.22969" height="0.439521" rx="0.21976" transform="matrix(-1 0 0 1 145.953 81.7167)" fill="#4B2BA5"/>
<path d="M148.619 81.8932V81.6838C148.619 81.6575 148.597 81.6362 148.57 81.6362H147.363C147.118 81.6362 146.935 81.6872 146.804 81.7924C146.667 81.9025 146.598 82.0586 146.598 82.2561C146.598 82.473 146.665 82.6338 146.803 82.7477C146.941 82.8611 147.141 82.9187 147.398 82.9187H147.622V83.61C147.622 83.6364 147.644 83.6577 147.671 83.6577H147.823C147.851 83.6577 147.872 83.6363 147.872 83.61V81.9409H148.069V83.61C148.069 83.6363 148.091 83.6576 148.118 83.6576H148.266C148.293 83.6576 148.315 83.6363 148.315 83.61V81.9409H148.57C148.597 81.9409 148.619 81.9195 148.619 81.8932Z" fill="#4B2BA5"/>
<rect width="2.22969" height="0.439521" rx="0.21976" transform="matrix(-1 0 0 1 145.953 82.5956)" fill="#4B2BA5"/>
<rect width="2.22969" height="0.439521" rx="0.21976" transform="matrix(-1 0 0 1 145.953 83.4751)" fill="#4B2BA5"/>
<rect width="4.90531" height="0.439521" rx="0.21976" transform="matrix(-1 0 0 1 148.625 84.3535)" fill="#4B2BA5"/>
<rect width="4.90531" height="0.439521" rx="0.21976" transform="matrix(-1 0 0 1 148.625 85.233)" fill="#4B2BA5"/>
</g>
<rect width="0.505381" height="0.505381" rx="0.25269" transform="matrix(-1 0 0 1 158.234 83.6575)" fill="#4B2BA5"/>
<rect width="4.04305" height="0.505381" rx="0.25269" transform="matrix(-1 0 0 1 162.781 83.6575)" fill="#4B2BA5"/>
<rect width="0.505381" height="0.505381" rx="0.25269" transform="matrix(-1 0 0 1 158.234 82.647)" fill="#4B2BA5"/>
<rect width="4.04305" height="0.505381" rx="0.25269" transform="matrix(-1 0 0 1 162.781 82.647)" fill="#4B2BA5"/>
<rect width="0.505381" height="0.505381" rx="0.25269" transform="matrix(-1 0 0 1 158.234 84.6686)" fill="#4B2BA5"/>
<rect width="4.04305" height="0.505381" rx="0.25269" transform="matrix(-1 0 0 1 162.781 84.6686)" fill="#4B2BA5"/>
<rect x="143.07" y="96.7974" width="6.06457" height="2.5269" rx="0.505381" fill="#4B2BA5"/>
<rect x="144.078" y="97.8082" width="4.04305" height="0.505381" rx="0.25269" fill="#FBF9FF"/>
<rect x="158.332" y="98.4145" width="3.84089" height="1.31399" rx="0.404305" stroke="#4B2BA5" stroke-width="0.202152"/>
<rect x="158.738" y="97.3029" width="3.03229" height="0.505381" rx="0.25269" fill="#4B2BA5"/>
<path d="M145.857 123.311C145.933 123.079 146.262 123.079 146.338 123.311L146.608 124.143C146.642 124.247 146.739 124.318 146.848 124.318L147.723 124.318C147.968 124.318 148.069 124.631 147.871 124.775L147.164 125.289C147.075 125.353 147.038 125.467 147.072 125.572L147.342 126.403C147.418 126.636 147.151 126.83 146.953 126.686L146.246 126.172C146.157 126.107 146.037 126.107 145.949 126.172L145.241 126.686C145.043 126.83 144.777 126.636 144.852 126.403L145.123 125.572C145.156 125.467 145.119 125.353 145.031 125.289L144.323 124.775C144.125 124.631 144.227 124.318 144.472 124.318L145.346 124.318C145.456 124.318 145.553 124.247 145.587 124.143L145.857 123.311Z" fill="#4B2BA5"/>
<path d="M336.774 65.3884H300.238C299.067 65.3884 298.117 66.338 298.117 67.5095V104.057C298.117 105.229 299.067 106.178 300.238 106.178H336.774C337.945 106.178 338.895 105.229 338.895 104.057V67.5095C338.895 66.338 337.945 65.3884 336.774 65.3884Z" fill="#7747FF"/>
<path d="M329.886 87.1884L329.885 92.9044C329.885 93.1061 329.777 93.2916 329.603 93.3928L325.075 96.0026C324.697 96.2205 324.226 95.9466 324.228 95.5108L324.261 90.4329C324.262 90.2299 324.153 90.041 323.977 89.9405L318.891 87.0319C318.715 86.9307 318.606 86.7425 318.607 86.5395L318.644 80.8059C318.645 80.6029 318.537 80.4153 318.361 80.3142L313.853 77.7185C313.476 77.502 313.476 76.959 313.853 76.7418L318.27 74.1968C318.442 74.0976 318.655 74.0963 318.828 74.1934L323.981 77.0764C324.16 77.1762 324.27 77.3644 324.27 77.5681L324.269 83.2794C324.269 83.4804 324.376 83.6659 324.549 83.7671L329.605 86.7014C329.779 86.8025 329.886 86.988 329.886 87.1891L329.886 87.1884Z" fill="white"/>
<path d="M307.195 87.3407L311.688 89.9397C311.864 90.0409 311.971 90.2291 311.97 90.4315L311.938 95.5107C311.935 95.9465 312.405 96.2204 312.781 96.0025L317.292 93.3927C317.466 93.2922 317.573 93.106 317.573 92.9043V87.1943C317.574 86.9906 317.465 86.8024 317.287 86.7026L312.153 83.8163C311.98 83.7191 311.769 83.7205 311.597 83.8196L307.195 86.364C306.82 86.5812 306.82 87.1235 307.195 87.3407Z" fill="white"/>
<path d="M336.774 106.448H300.239C298.921 106.448 297.848 105.375 297.848 104.056V67.5084C297.848 66.19 298.92 65.1178 300.239 65.1178H336.774C338.092 65.1178 339.164 66.19 339.164 67.5084V104.056C339.164 105.375 338.092 106.448 336.774 106.448ZM300.239 65.6582C299.219 65.6582 298.388 66.489 298.388 67.5097V104.057C298.388 105.078 299.219 105.909 300.239 105.909H336.774C337.794 105.909 338.625 105.078 338.625 104.057V67.5097C338.625 66.489 337.794 65.6582 336.774 65.6582H300.239Z" fill="#4B2BA5"/>
<path d="M294.359 83.7721H258.379C258.229 83.7721 258.109 83.6508 258.109 83.5025C258.109 83.3543 258.231 83.233 258.379 83.233H294.359C294.509 83.233 294.629 83.3543 294.629 83.5025C294.629 83.6508 294.508 83.7721 294.359 83.7721Z" fill="#4B2BA5"/>
<path d="M99.1836 113.196C99.0341 113.196 98.9141 113.076 98.9141 112.927V85.0263C98.9141 84.8768 99.0354 84.7567 99.1836 84.7567H117.886C118.035 84.7567 118.155 84.878 118.155 85.0263C118.155 85.1746 118.034 85.2959 117.886 85.2959H99.4532V112.927C99.4532 113.076 99.3319 113.196 99.1836 113.196Z" fill="#4B2BA5"/>
<path d="M102.74 119.061C102.74 120.895 101.253 122.382 99.4203 122.382C97.5872 122.382 96.1009 120.895 96.1009 119.061C96.1009 117.227 97.5872 115.74 99.4203 115.74C101.253 115.74 102.74 117.227 102.74 119.061Z" stroke="#82EDA8" stroke-width="0.686175"/>
<path opacity="0.8" d="M309.904 127.634C309.904 129.37 308.497 130.778 306.761 130.778C305.025 130.778 303.618 129.37 303.618 127.634C303.618 125.897 305.025 124.489 306.761 124.489C308.497 124.489 309.904 125.897 309.904 127.634Z" stroke="#82EDA8" stroke-width="0.64975"/>
<path opacity="0.5" d="M309.904 137.758C309.904 139.495 308.497 140.902 306.761 140.902C305.025 140.902 303.618 139.495 303.618 137.758C303.618 136.021 305.025 134.614 306.761 134.614C308.497 134.614 309.904 136.021 309.904 137.758Z" stroke="#82EDA8" stroke-width="0.64975"/>
<path d="M306.77 167.076H249.392C249.25 167.076 249.137 166.963 249.137 166.821C249.137 166.68 249.252 166.566 249.392 166.566H306.514V147.02C306.514 146.878 306.629 146.765 306.77 146.765C306.91 146.765 307.025 146.878 307.025 147.02V166.822C307.025 166.964 306.91 167.078 306.77 167.078V167.076Z" fill="#4B2BA5"/>
<path d="M85.1106 250.553L64.9023 224.72H87.1689L96.489 235.634C100.078 239.837 105.328 242.256 110.851 242.256L126.856 242.25V257.794L99.9829 257.8C94.1741 257.8 88.691 255.127 85.1077 250.55L85.1106 250.553Z" fill="#DFE3E8"/>
<path d="M155.538 249.679L154.959 250.863L149.133 250.497L144.517 245.34H106.695V242.356H119.996C121.911 242.356 127.209 239.263 131.53 239.263H139.398C141.92 239.263 144.411 239.843 146.674 240.961L153.765 244.461C155.694 245.412 156.487 247.747 155.541 249.679H155.538Z" fill="#DFE3E8"/>
<path d="M148.576 253.075L155.089 256.26C156.475 256.943 158.156 256.37 158.833 254.977L158.845 254.954C159.663 253.276 158.972 251.253 157.297 250.425L149.741 246.698C147.478 245.582 144.99 245 142.468 245H106.695V255.929H133.338L136.065 253.325C137.881 251.593 140.407 250.794 142.877 251.218C144.5 251.495 146.466 252.04 148.573 253.069L148.576 253.075Z" fill="#DFE3E8"/>
<path d="M136.306 253C136.9 253.101 137.54 253.155 138.243 253.155C138.502 253.184 139.598 253.173 143.426 253.164C145.34 253.158 146.9 254.712 146.9 256.629V256.678C146.9 258.592 145.352 260.14 143.441 260.14H128.914C118.75 260.14 119.202 252.409 119.202 252.409V248.497H122.451C129.762 248.497 131.483 252.187 136.306 252.997V253Z" fill="#DFE3E8"/>
<path d="M156.319 256.836C155.852 256.836 155.391 256.729 154.958 256.516L148.446 253.334C146.639 252.449 144.748 251.835 142.828 251.506C140.484 251.105 138.336 251.696 136.624 253.215C136.506 253.322 136.324 253.31 136.218 253.189C136.111 253.071 136.122 252.887 136.243 252.783C138.068 251.169 140.441 250.511 142.929 250.938C144.903 251.275 146.846 251.907 148.703 252.815L155.215 256C155.818 256.297 156.498 256.34 157.132 256.124C157.766 255.908 158.279 255.455 158.573 254.85C159.332 253.296 158.695 251.437 157.17 250.684L149.614 246.957C147.403 245.867 144.932 245.291 142.467 245.291H139.686C139.527 245.291 139.397 245.161 139.397 245.002C139.397 244.844 139.527 244.714 139.686 244.714H142.467C145.022 244.714 147.579 245.311 149.87 246.441L157.426 250.168C159.237 251.062 159.989 253.264 159.104 255.081C158.732 255.847 158.101 256.404 157.319 256.669C156.994 256.781 156.656 256.836 156.319 256.836Z" fill="#7747FF"/>
<path d="M143.34 260.429H129.935C125.908 260.429 123.143 259.694 121.252 258.123H99.9803C94.1485 258.123 88.5069 255.358 84.8832 250.731L64.6749 224.899C64.6058 224.812 64.5942 224.694 64.6432 224.596C64.6922 224.498 64.7931 224.434 64.9027 224.434H87.1693C87.2529 224.434 87.3336 224.472 87.3884 224.535L96.7084 235.45C100.309 239.667 105.46 242.083 110.846 242.083H110.851L119.995 242.071C120.707 242.071 122.016 241.575 123.533 241.002C125.917 240.099 128.883 238.978 131.529 238.978H139.397C141.948 238.978 144.508 239.575 146.8 240.705L153.891 244.205C155.938 245.213 156.797 247.629 155.846 249.705C155.779 249.849 155.609 249.912 155.462 249.846C155.318 249.78 155.255 249.61 155.321 249.463C156.14 247.673 155.399 245.588 153.635 244.721L146.543 241.221C144.332 240.131 141.861 239.555 139.397 239.555H131.529C128.99 239.555 126.075 240.656 123.737 241.541C122.106 242.158 120.814 242.645 119.998 242.645L110.854 242.656H110.848C105.296 242.656 99.9832 240.166 96.2731 235.821L87.0395 225.008H65.4965L85.3416 250.374C88.8557 254.865 94.3272 257.546 99.9832 257.546H121.359C121.428 257.546 121.494 257.572 121.546 257.615C123.331 259.143 125.997 259.852 129.938 259.852H143.343C145.093 259.852 146.514 258.428 146.514 256.678V256.629C146.514 255.779 146.183 254.98 145.58 254.381C144.98 253.784 144.185 253.452 143.34 253.452H143.332L141.449 253.458C139.209 253.464 138.638 253.467 138.402 253.444C137.459 253.444 136.012 253.326 135.009 252.997C134.859 252.948 134.775 252.784 134.824 252.634C134.873 252.484 135.038 252.4 135.188 252.449C136.13 252.758 137.517 252.867 138.416 252.867C138.428 252.867 138.437 252.867 138.448 252.867C138.641 252.887 139.293 252.887 141.446 252.879L143.329 252.873C144.341 252.879 145.275 253.259 145.987 253.968C146.699 254.678 147.091 255.62 147.091 256.626V256.675C147.091 258.745 145.41 260.426 143.343 260.426L143.34 260.429Z" fill="#7747FF"/>
<path d="M84.1055 268.12H12.7539L17.6056 222.145H72.5341L84.1055 268.12Z" fill="white"/>
<path d="M84.1025 268.408H12.748C12.6673 268.408 12.5894 268.373 12.5346 268.313C12.4799 268.252 12.4539 268.172 12.4626 268.091L17.3172 222.113C17.3316 221.966 17.4555 221.854 17.6026 221.854H72.531C72.6636 221.854 72.7789 221.943 72.8106 222.073L84.385 268.05C84.4081 268.137 84.385 268.229 84.3331 268.298C84.2783 268.368 84.1947 268.411 84.1054 268.411L84.1025 268.408ZM13.068 267.831H83.7306L72.3033 222.43H17.8591L13.068 267.831Z" fill="#7747FF"/>
<path d="M93.5059 229.453H74.2922C74.1336 229.453 74.0039 229.324 74.0039 229.165C74.0039 229.006 74.1336 228.877 74.2922 228.877H93.5059C93.6644 228.877 93.7942 229.006 93.7942 229.165C93.7942 229.324 93.6644 229.453 93.5059 229.453Z" fill="#7747FF"/>
<path d="M1.64453 229.661V222.289C1.64453 209.576 11.9389 199.27 24.6376 199.27H56.178C66.0429 199.27 75.3226 203.943 81.2034 211.874L94.0289 229.168H73.8495L1.64741 229.661H1.64453Z" fill="white"/>
<path d="M31.4016 229.949H1.63984C1.48129 229.949 1.35156 229.82 1.35156 229.661V222.29C1.35156 209.438 11.7959 198.983 24.6329 198.983H56.1733C66.0814 198.983 75.5226 203.736 81.4294 211.701L94.2548 228.995C94.3211 229.082 94.3298 229.2 94.2808 229.298C94.2318 229.396 94.1309 229.456 94.0242 229.456L74.2772 229.468C74.1186 229.468 73.9889 229.338 73.9889 229.18C73.9889 229.021 74.1186 228.891 74.2772 228.891L93.4505 228.88L80.9652 212.047C75.168 204.229 65.8998 199.562 56.1705 199.562H24.63C12.1101 199.562 1.92524 209.758 1.92524 222.293V229.376H31.3988C31.5573 229.376 31.687 229.505 31.687 229.664C31.687 229.822 31.5573 229.952 31.3988 229.952L31.4016 229.949Z" fill="#7747FF"/>
<path d="M31.4016 229.949C31.243 229.949 31.1133 229.819 31.1133 229.661V216.138C31.1133 215.979 31.243 215.849 31.4016 215.849C31.5601 215.849 31.6898 215.979 31.6898 216.138V229.661C31.6898 229.819 31.5601 229.949 31.4016 229.949Z" fill="#7747FF"/>
<path d="M97.2491 261.299H82.7891V266.359H183.66V261.299H108.434H97.2491Z" fill="#020202"/>
<path d="M183.656 266.646H82.7844C82.6258 266.646 82.4961 266.517 82.4961 266.358V261.299C82.4961 261.14 82.6258 261.011 82.7844 261.011H97.2444C97.4029 261.011 97.5327 261.14 97.5327 261.299C97.5327 261.457 97.4029 261.587 97.2444 261.587H83.0726V266.07H183.367V261.587H108.427C108.268 261.587 108.138 261.457 108.138 261.299C108.138 261.14 108.268 261.011 108.427 261.011H183.656C183.814 261.011 183.944 261.14 183.944 261.299V266.358C183.944 266.517 183.814 266.646 183.656 266.646Z" fill="white"/>
<path d="M119.988 261.299L152.575 227.08L215.927 227.083L183.744 261.299H119.988Z" fill="#7747FF"/>
<path d="M183.656 266.646H82.7844C82.6258 266.646 82.4961 266.517 82.4961 266.358V261.299C82.4961 261.14 82.6258 261.011 82.7844 261.011H183.656C183.814 261.011 183.944 261.14 183.944 261.299V266.358C183.944 266.517 183.814 266.646 183.656 266.646ZM83.0726 266.07H183.367V261.587H83.0726V266.07Z" fill="white"/>
<path d="M173.857 245.147C173.859 243.588 172.598 242.323 171.041 242.321C169.484 242.319 168.22 243.582 168.218 245.14C168.216 246.699 169.477 247.964 171.034 247.966C172.591 247.968 173.855 246.706 173.857 245.147Z" fill="white"/>
<path d="M3.73751 248.336L3.57031 229.603L28.3045 229.534L28.071 236.222C28.071 238.808 30.1668 240.907 32.7498 240.904L72.7743 240.892V262.847L18.2408 262.859C10.2295 262.859 3.73175 256.358 3.73175 248.338L3.73751 248.336Z" fill="#DFE3E8"/>
<path d="M96.8518 247.721L99.23 250.296C100.432 251.596 100.553 253.565 99.5183 255L97.1804 258.249L91.5157 251.921H55.9336V244.467H89.4113C92.2335 244.467 94.9289 245.646 96.8489 247.721H96.8518Z" fill="#DFE3E8"/>
<path d="M95.7573 243.071L97.1036 244.527C98.3057 245.827 98.4268 247.796 97.3918 249.232L95.0539 252.481L89.3892 246.153H55.9375V240.967H61.6166C63.966 240.967 68.1547 238.698 73.4561 238.698H85.7656C89.5593 238.698 93.1801 240.284 95.7573 243.068V243.071Z" fill="#DFE3E8"/>
<path d="M97.6862 252.731L100.54 255.819C101.742 257.119 101.863 259.088 100.828 260.524L98.4905 263.772L92.8259 257.445H70.7812V249.99H91.4191C93.7973 249.99 96.069 250.984 97.6833 252.731H97.6862Z" fill="#DFE3E8"/>
<path d="M96.642 258.16L99.6199 261.38C100.724 262.573 100.834 264.381 99.8851 265.701C98.611 267.474 96.0251 267.612 94.5693 265.984L92.9521 264.179C92.1795 263.317 91.0783 262.824 89.9194 262.824H71.4091C66.5689 262.824 63.1615 262.547 58.5 255.364L90.2653 255.369C92.6869 255.369 94.996 256.381 96.642 258.16Z" fill="#DFE3E8"/>
<path d="M3.73751 240.128L3.57031 229.603L28.0682 229.903V234.723C26.4394 234.654 24.2168 234.458 22.4871 233.924C19.8984 233.126 17.3615 232.757 14.8679 236.167C11.6017 240.635 7.41017 241.122 3.73751 240.128Z" fill="#7747FF"/>
<path d="M99.6701 255.171C99.6125 255.171 99.5519 255.153 99.5029 255.116C99.3732 255.024 99.3444 254.842 99.4366 254.712C100.35 253.444 100.18 251.746 99.0186 250.489L96.6403 247.915C94.7838 245.905 92.1489 244.752 89.4161 244.752H82.8664C82.7079 244.752 82.5781 244.622 82.5781 244.464C82.5781 244.305 82.7079 244.176 82.8664 244.176H89.4161C92.3104 244.176 95.098 245.395 97.0641 247.523L99.4424 250.097C100.797 251.561 100.982 253.553 99.9065 255.049C99.8488 255.127 99.7624 255.171 99.673 255.171H99.6701Z" fill="#7747FF"/>
<path d="M99.9171 262.077C99.8594 262.077 99.7989 262.06 99.7499 262.022C99.6202 261.93 99.5913 261.749 99.6836 261.619L100.595 260.353C101.546 259.033 101.433 257.205 100.329 256.012L97.4754 252.924C95.9187 251.241 93.7134 250.275 91.4215 250.275H82.8078C82.6493 250.275 82.5195 250.145 82.5195 249.987C82.5195 249.828 82.6493 249.699 82.8078 249.699H91.4215C93.8719 249.699 96.2329 250.731 97.8992 252.532L100.753 255.62C102.042 257.015 102.174 259.148 101.064 260.691L100.153 261.956C100.096 262.034 100.009 262.077 99.92 262.077H99.9171Z" fill="#7747FF"/>
<path d="M97.1052 267.414C96.053 267.414 95.0585 266.97 94.3493 266.18L92.7321 264.375C92.0143 263.574 90.988 263.115 89.9156 263.115H69.4421C65.7839 263.115 62.3707 261.302 60.3152 258.269C60.2259 258.137 60.2605 257.958 60.3931 257.869C60.5257 257.779 60.7044 257.814 60.7938 257.947C62.7425 260.824 65.977 262.542 69.4421 262.542H89.9156C91.1523 262.542 92.3371 263.072 93.1616 263.995L94.7788 265.799C95.413 266.508 96.3211 266.886 97.2753 266.837C98.2266 266.785 99.0915 266.312 99.6478 265.54C100.516 264.335 100.412 262.671 99.4057 261.582L96.4278 258.362C94.8423 256.646 92.5966 255.666 90.2644 255.666H83.0949C82.9364 255.666 82.8067 255.537 82.8067 255.378C82.8067 255.219 82.9364 255.09 83.0949 255.09H90.2644C92.758 255.09 95.1594 256.139 96.8516 257.973L99.8295 261.193C101.023 262.481 101.144 264.453 100.118 265.88C99.4576 266.797 98.4342 267.356 97.3099 267.417C97.2436 267.419 97.1773 267.422 97.111 267.422L97.1052 267.414Z" fill="#7747FF"/>
<path d="M18.24 263.147C14.2877 263.147 10.5747 261.608 7.78126 258.812C4.98785 256.015 3.44845 252.296 3.44845 248.338L3.28125 229.609C3.28125 229.531 3.31008 229.456 3.36485 229.404C3.41962 229.35 3.48881 229.318 3.56953 229.321L28.0674 229.462C28.2259 229.462 28.3528 229.592 28.3528 229.75V236.228C28.3557 237.401 28.814 238.505 29.6414 239.336C30.4716 240.166 31.5728 240.621 32.7432 240.621H60.5447C62.6463 240.621 64.3183 240.16 66.0883 239.673C68.2187 239.085 70.6345 238.419 74.2668 238.419H85.7546C89.6147 238.419 93.3335 240.045 95.9568 242.881L97.303 244.337C98.4187 245.542 98.6868 247.28 97.9891 248.765C97.92 248.909 97.7499 248.97 97.6057 248.903C97.4616 248.837 97.4011 248.664 97.4674 248.52C98.0641 247.249 97.8335 245.758 96.8793 244.726L95.533 243.271C93.0192 240.552 89.4532 238.992 85.7546 238.992H74.2668C70.7123 238.992 68.3369 239.647 66.2411 240.226C64.4336 240.725 62.7241 241.198 60.5447 241.198H32.7432C31.4172 241.198 30.1689 240.682 29.232 239.742C28.2951 238.802 27.7762 237.554 27.7762 236.225V230.033L3.85204 229.894L4.01635 248.336C4.01635 252.141 5.49522 255.715 8.18197 258.402C10.8658 261.089 14.4376 262.571 18.2342 262.571H76.5067C76.6652 262.571 76.795 262.7 76.795 262.859C76.795 263.018 76.6652 263.147 76.5067 263.147H18.2342H18.24Z" fill="#7747FF"/>
<path d="M50.0138 187.445C53.0245 187.445 55.4652 185.02 55.4652 182.029C55.4652 179.037 53.0245 176.612 50.0138 176.612C47.0031 176.612 44.5625 179.037 44.5625 182.029C44.5625 185.02 47.0031 187.445 50.0138 187.445Z" fill="#7747FF"/>
<path d="M34.1779 190.005C37.1886 190.005 39.6292 187.58 39.6292 184.589C39.6292 181.597 37.1886 179.172 34.1779 179.172C31.1672 179.172 28.7266 181.597 28.7266 184.589C28.7266 187.58 31.1672 190.005 34.1779 190.005Z" fill="#7747FF"/>
<path d="M34.7326 183.035C37.7433 183.035 40.1839 180.61 40.1839 177.618C40.1839 174.626 37.7433 172.201 34.7326 172.201C31.7219 172.201 29.2812 174.626 29.2812 177.618C29.2812 180.61 31.7219 183.035 34.7326 183.035Z" fill="#7747FF"/>
<path d="M40.967 179.518C43.9776 179.518 46.4183 177.093 46.4183 174.101C46.4183 171.11 43.9776 168.684 40.967 168.684C37.9563 168.684 35.5156 171.11 35.5156 174.101C35.5156 177.093 37.9563 179.518 40.967 179.518Z" fill="#7747FF"/>
<path d="M46.342 181.746C49.3526 181.746 51.7933 179.321 51.7933 176.329C51.7933 173.338 49.3526 170.913 46.342 170.913C43.3313 170.913 40.8906 173.338 40.8906 176.329C40.8906 179.321 43.3313 181.746 46.342 181.746Z" fill="#7747FF"/>
<path d="M36.457 199.686L45.4801 209.018V188.76H36.457V199.686Z" fill="#DFE3E8"/>
<path d="M45.4793 209.306C45.4015 209.306 45.3265 209.274 45.2718 209.219L36.2487 199.888C36.1968 199.833 36.168 199.761 36.168 199.686V188.76C36.168 188.602 36.2977 188.472 36.4562 188.472H45.4793C45.6379 188.472 45.7676 188.602 45.7676 188.76V209.02C45.7676 209.139 45.6955 209.242 45.5889 209.289C45.5543 209.303 45.5168 209.309 45.4793 209.309V209.306ZM36.7445 199.568L45.1911 208.303V189.046H36.7445V199.568Z" fill="#7747FF"/>
<path d="M36.4531 192.159V188.76H45.4762V196.264C44.6633 196.426 43.0403 196.628 41.1751 196.019C38.2577 195.065 36.825 192.796 36.4531 192.162V192.159Z" fill="#7747FF"/>
<path d="M42.2311 194.16C46.1859 194.16 49.392 190.639 49.392 186.295C49.392 181.952 46.1859 178.431 42.2311 178.431C38.2763 178.431 35.0703 181.952 35.0703 186.295C35.0703 190.639 38.2763 194.16 42.2311 194.16Z" fill="#DFE3E8"/>
<path d="M42.231 194.451C39.9276 194.451 38.4142 194.076 36.5346 192.032C36.428 191.914 36.4337 191.732 36.5519 191.626C36.6701 191.519 36.8517 191.525 36.9584 191.643C38.7025 193.54 40.0487 193.874 42.231 193.874C46.0189 193.874 49.1035 190.475 49.1035 186.298C49.1035 182.121 46.0218 178.722 42.231 178.722C39.7979 178.722 37.5955 180.094 36.3386 182.395C36.2636 182.533 36.0878 182.585 35.9465 182.51C35.8082 182.435 35.7563 182.259 35.8312 182.118C37.1688 179.668 39.6221 178.146 42.2281 178.146C46.3361 178.146 49.6772 181.804 49.6772 186.298C49.6772 190.792 46.3361 194.451 42.2281 194.451H42.231Z" fill="#7747FF"/>
<path d="M39.0234 188.411C39.156 189.196 39.5279 189.945 40.1506 190.539C41.5372 191.859 43.6561 191.943 45.1378 190.821L39.0234 188.411Z" fill="white"/>
<path d="M42.2311 178.431C38.276 178.431 35.0703 181.951 35.0703 186.295C35.0703 186.684 35.0963 187.07 35.1481 187.445L36.6904 183.896L49.0921 184.046C48.21 180.8 45.4743 178.431 42.2311 178.431Z" fill="#7747FF"/>
<path d="M37.9922 330.866H73.5887L92.6785 283.69H57.0819L37.9922 330.866Z" fill="#4B2BA5"/>
<path d="M14.28 273.156L15.1304 268.002H98.5983C105.8 268.002 112.329 272.231 115.278 278.806L138.868 330.866H101.181L86.7732 298.744H35.97C22.4007 298.744 12.0746 286.558 14.2828 273.156H14.28Z" fill="#4B2BA5"/>
<path d="M117.059 282.785C115.479 283.142 113.836 283.335 112.146 283.335C102.299 283.335 93.959 276.901 91.082 268.002H98.5945C105.796 268.002 112.325 272.231 115.274 278.806L117.059 282.785Z" fill="#B9BEC6"/>
<path d="M101.175 331.155C101.065 331.155 100.959 331.091 100.913 330.985L86.5795 299.032H35.9608C29.414 299.032 23.2275 296.166 18.9899 291.173C14.7435 286.169 12.9216 279.587 13.9911 273.11L14.8819 267.713H98.592C105.894 267.713 112.545 272.02 115.534 278.688L139.124 330.745C139.19 330.889 139.124 331.062 138.98 331.126C138.836 331.192 138.663 331.126 138.599 330.982L115.009 278.922C112.109 272.461 105.666 268.284 98.592 268.284H15.3691L14.559 273.196C13.5184 279.507 15.2942 285.921 19.4281 290.793C23.5562 295.659 29.5812 298.449 35.9608 298.449H86.9513L101.437 330.742C101.504 330.886 101.437 331.059 101.293 331.123C101.256 331.14 101.215 331.149 101.175 331.149V331.155Z" fill="white"/>
<path d="M185.864 272.981H1.29688V265.621H185.864V272.981ZM1.87343 272.404H185.287V266.197H1.87343V272.404Z" fill="#7747FF"/>
<path d="M174.332 330.803C174.174 330.803 174.044 330.673 174.044 330.515V272.98H167.846V330.515C167.846 330.673 167.716 330.803 167.558 330.803C167.399 330.803 167.27 330.673 167.27 330.515V272.404H174.621V330.515C174.621 330.673 174.491 330.803 174.332 330.803Z" fill="#7747FF"/>
<path d="M18.1605 330.803C18.0019 330.803 17.8722 330.674 17.8722 330.515V272.98H11.6742V330.515C11.6742 330.674 11.5445 330.803 11.3859 330.803C11.2274 330.803 11.0977 330.674 11.0977 330.515V272.404H18.4487V330.515C18.4487 330.674 18.319 330.803 18.1605 330.803Z" fill="#7747FF"/>
<path d="M278.742 294.086H322.925V249.903H278.742V294.086ZM321.436 264.135H294.462V251.392H321.436V264.135ZM292.974 265.624V278.366H280.231V265.624H292.974ZM294.462 292.597V279.855H321.436V292.597H294.462Z" fill="#35C4FA"/>
<defs>
<linearGradient id="paint0_linear_9214_103165" x1="418.917" y1="231.47" x2="162.531" y2="-103.258" gradientUnits="userSpaceOnUse">
<stop stop-color="white"/>
<stop offset="1" stop-color="white" stop-opacity="0"/>
</linearGradient>
<clipPath id="clip0_9214_103165">
<rect width="5.05381" height="5.55919" fill="white" transform="translate(129.93 81.1309)"/>
</clipPath>
<clipPath id="clip1_9214_103165">
<rect width="4.04305" height="4.04305" fill="white" transform="translate(144.078 136.723)"/>
</clipPath>
<clipPath id="clip2_9214_103165">
<rect width="5.05381" height="4.04305" fill="white" transform="translate(157.727 109.432)"/>
</clipPath>
<clipPath id="clip3_9214_103165">
<rect width="5.05381" height="5.55919" fill="white" transform="matrix(-1 0 0 1 148.629 81.1306)"/>
</clipPath>
</defs>
</svg>
